<svg width="16" height="10" viewBox="0 0 16 10" fill="none" xmlns="http://www.w3.org/2000/svg">
<path d="M11.8955 0.406127C11.8955 0.195482 12.1062 0.0997349 12.2977 0.023137C12.336 0.023137 12.3743 0.023137 12.4317 0.023137L12.8722 0.00398781C12.9296 0.00398781 12.9871 0.00398781 13.0062 0.00398781C13.4658 0.00398781 14.5382 -0.0917595 14.5382 0.655069H12.1636C11.9338 0.655069 11.8955 0.559322 11.8955 0.406127ZM8.71673 8.83188C8.75503 8.2191 8.75503 5.36583 8.71673 4.75305C8.71673 4.52326 8.37204 2.79981 8.33374 2.57001C8.33374 2.57001 8.33374 2.41682 8.33374 2.37852C8.33374 1.59339 9.42526 1.4019 10.0189 1.4019C10.4785 1.4019 10.7083 1.82319 11.1487 1.82319C11.704 1.82319 12.2019 1.53594 12.7764 1.53594C13.6381 1.53594 15.3807 1.80404 15.3807 2.9913C15.3807 3.54664 14.4807 4.12112 13.9445 4.12112C13.4658 4.12112 13.0828 3.83388 12.5849 3.83388C11.8381 3.83388 10.9572 4.38921 10.9572 5.25094V9.59786C10.9572 10 9.94229 10 9.65505 10L9.32951 9.98085C9.29121 9.98085 9.25291 9.98085 9.23376 9.98085C8.81248 9.78936 8.69758 9.23402 8.71673 8.83188Z" fill="#FF7415"/>
<path d="M5.13205 9.57847C4.53842 9.57847 3.98309 9.86571 3.38945 9.86571C1.8575 9.86571 0 8.5827 0 6.9167V1.93784C0 1.34421 0.995771 1.40166 1.26386 1.40166C1.39791 1.40166 1.76175 1.42081 1.7809 1.42081L2.10644 1.6889V6.28477C2.10644 7.05074 3.04476 7.70183 3.71499 7.70183C4.59587 7.70183 5.2278 6.89755 5.2278 6.01667V2.18678C5.2278 1.95699 5.381 1.42081 5.74484 1.42081H7.14275C7.16189 1.42081 7.25764 1.51655 7.27679 1.55485C7.52573 1.91869 7.52573 2.41658 7.52573 2.83787C7.54488 3.4315 7.54488 6.18902 7.52573 6.78265C7.64063 7.49118 7.92787 8.27631 7.92787 8.96569C7.92787 9.71252 6.74061 9.98061 6.18527 9.98061C5.80228 9.98061 5.53419 9.57847 5.13205 9.57847ZM2.92987 5.36559C2.92987 5.1358 3.10221 5.00175 3.31286 5.00175C3.75329 5.2124 3.84904 5.94008 3.84904 6.39966C3.84904 6.59116 3.75329 6.66776 3.58095 6.66776C3.12136 6.66776 2.92987 5.71028 2.92987 5.36559Z" fill="#FF7415"/>
</svg>
